<svg xmlns="http://www.w3.org/2000/svg" viewBox="150 160 210 170" width="210" height="170">
    <defs>
        <linearGradient id="i" x1="0" x2="1000" y1="0" y2="1000" gradientTransform="translate(80 241.484)" gradientUnits="userSpaceOnUse">
            <stop offset="0%" style="stop-color:#834f2a"/>
            <stop offset="50%" style="stop-color:#dba173"/>
            <stop offset="100%" style="stop-color:#834f2a"/>
        </linearGradient>
    </defs>
    <g transform="matrix(.24215 0 0 .24215 255.595 238.99)">
        <path d="M515 250c107-12 204-11 276 1 74 12 121 36 125 68 2 5 3 10 3 15 5 38-15 68-48 93 0 13-6 24-18 35 5 5 10 10 13 15 3 7 5 14 5 21 0 13-6 25-19 36 5 5 10 11 13 16 4 7 6 14 6 21 0 12-5 22-15 33-22 81-125 127-249 145-73 11-153 12-228 4-75-7-144-24-195-48-55-25-90-60-89-102-10-10-15-20-15-32 0-7 2-14 6-21 4-5 8-11 14-16-13-11-20-23-20-36 0-7 2-14 6-21 3-5 7-10 12-15-12-11-18-23-18-35 0-15 9-29 25-42 16-12 40-24 69-34 18-13 43-26 72-38 68-28 163-51 269-63zm327 366c-21 15-51 28-89 38-71 20-169 33-277 33-109 0-207-13-278-33-40-11-72-25-93-41 5 33 36 62 83 83 50 24 119 40 192 48 74 7 153 6 225-4 113-17 208-57 237-124zm-53-118h-1l-2 1h-1l-1 1c-10 3-20 7-31 10-47 13-107 23-174 28h-3l-2 1h-13l-8 1h-8l-3 1h-23l-3 1h-80l-4-1h-23l-3-1h-8c-4 0-7 0-11-1h-9l-2-1h-4c-67-5-126-15-174-28-11-3-21-7-30-10h-1l-1-1h-1l-2-1c-24-9-43-19-57-29-5 4-9 9-12 13-3 5-4 10-4 16 0 11 7 22 19 32 1 0 1 0 1 1 27 21 77 39 142 52 38 8 82 13 129 17h7l4 1h15l4 1h22l3 1h80l2-1h23l4-1h14l4-1h7c48-4 91-9 130-17 65-13 115-31 141-52 0-1 1-1 1-1 13-10 20-21 20-32 0-6-2-11-5-16-3-4-6-9-11-13-14 10-34 20-57 29zm-301 34h32l3-1h17c4 0 9-1 13-1h1c3 0 6 0 10-1 72-4 136-15 187-29 10-3 20-6 29-9h1l2-1c26-9 46-20 60-32h1c8-7 14-15 16-22-36 24-86 43-136 57-69 19-140 30-178 34-14 2-34 4-58 5zM140 407l-1-1v-2c0-8 3-17 8-25 2-3 4-6 7-10-18 8-32 16-43 24-14 11-21 22-21 34 0 10 6 21 18 31l1 1c14 11 34 22 60 31l2 1c8 3 17 5 26 8-32-17-53-41-57-74-1-6-1-12 0-18zm770-61c-10 17-31 34-61 50h-1c-4 2-8 4-13 7h-2l-1 1c-7 3-15 7-22 10-55 22-127 41-208 54l-3 1h-3c-8 1-15 2-23 3l-3 1h-4l-2 1h-5l-3 1h-6l-3 1h-6l-5 1h-5v1h-10v1h-10l-5 1h-5l-5 1h-9l-5 1h-10l-4 1h-15l-4 1h-23l-5 1h-49l-4-1h-17c-8-1-16-1-24-2-4 0-8 0-12-1-18-1-35-3-50-6-17-2-32-6-45-9l-2-1c-31-9-55-21-67-35 6 30 29 51 61 66 36 15 82 24 130 27 81 6 164-1 203-6 38-4 108-14 177-34 50-14 100-33 135-57 32-22 52-49 53-80zM266 466c5 0 9 1 14 2h3c5 1 10 1 15 2h3c4 1 8 1 12 1l3 1h8l4 1h12l4 1h21l4 1h57l4-1h23l5-1h14l5-1c9 0 19-1 28-2 12-1 23-2 35-3l3-1h6l3-1h2l3-1h7l2-1h6l3-1h4l1-1h6l2-1h5l1-1h4l2-1h6l1-1h5l2-1h3l2-1h3l3-1h1l4-1h3l2-1h4l5-1 2-1h3l3-1h2l3-1h2l3-1 3-1h2l3-1h2l3-1h2l2-1 3-1h3l2-1h3l2-1h3l1-1h1l3-1h2l2-1h1l2-1h3l2-1h2l2-1h1l2-1h3l2-1 3-1h2l3-1 2-1h2l3-1h1l1-1 2-1h3l1-1h1l2-1h3l2-1 2-1h2l3-1 2-1 2-1h2l1-1h1l3-1 3-1h1l2-1h1l1-1 2-1h2l2-1 2-1h1l1-1h2l2-1 1-1h2c3-1 6-3 9-4l2-1c13-5 24-10 35-16h1c41-22 64-45 62-67-3-27-48-48-117-59-71-12-168-13-273-1h-1c-105 12-199 34-266 62-29 12-53 24-70 37 0 0-1 1-2 1-10 8-18 16-23 24-4 6-6 13-6 19v3s0 1 1 1v4l1 1v1l1 2v1l1 1 1 1 1 1v2c1 0 1 0 1 1l1 1 1 1 6 6c4 3 9 7 15 10l2 1 6 3c1 0 3 1 4 1l2 1c4 2 7 3 11 5 16 5 40 12 62 15z" style="stroke:none;stroke-width:1;stroke-dasharray:none;stroke-linecap:butt;stroke-dashoffset:0;stroke-linejoin:miter;stroke-miterlimit:4;fill:url(#i);fill-rule:nonzero;opacity:1" transform="translate(-499.881 -499.867)"/>
    </g>
</svg>
