<?xml version="1.0" encoding="UTF-8" standalone="no" ?>
<!DOCTYPE svg PUBLIC "-//W3C//DTD SVG 1.1//EN" "http://www.w3.org/Graphics/SVG/1.1/DTD/svg11.dtd">
<svg xmlns="http://www.w3.org/2000/svg" xmlns:xlink="http://www.w3.org/1999/xlink" version="1.1" width="500" height="500" viewBox="0 0 500 500" xml:space="preserve">
<desc>Created with Fabric.js 3.6.3</desc>
<defs>
</defs>
<g transform="matrix(1 0 0 1 251.99999185892418 354.61999999999995)" style=""  ><path fill="url(#CUSTOM_SVGID_700)" opacity="1" d="M-85.20 18.26C-78.76 18.26-74.79 14.12-74.23 6.95L-77.59 6.95C-78.15 12.38-80.72 15.13-85.20 15.13C-89.52 15.13-92.54 12.33-92.54 6.50L-92.54-10.52C-92.54-16.34-89.63-19.14-85.43-19.14C-81.00-19.14-78.32-16.51-77.92-10.97L-74.56-10.97C-74.96-18.25-79.04-22.28-85.43-22.28C-91.59-22.28-95.90-18.08-95.90-10.52L-95.90 6.50C-95.90 14.06-91.48 18.26-85.20 18.26Z"/>
    <linearGradient id="CUSTOM_SVGID_700" gradientUnits="userSpaceOnUse" gradientTransform="matrix(1 0 0 1 -195.49499185892418 -31.639999999999997)"  x1="0" y1="0" x2="390.98998371784836" y2="63.279999999999994">
      <stop  offset="0" style="stop-color:#834f2a;stop-opacity:undefined"/><stop  offset="0.5" style="stop-color:#dba173;stop-opacity:undefined"/><stop  offset="1" style="stop-color:#834f2a;stop-opacity:undefined"/>
    </linearGradient>
  <path fill="url(#CUSTOM_SVGID_701)" opacity="1" d="M-54.63-22.62L-58.55-22.62L-62.75-16.29L-59.50-16.29ZM-52.89 8.58C-53.34 12.89-55.47 14.90-59.72 14.90C-63.59 14.90-65.94 12.61-65.94 7.68L-65.94 4.49L-49.98 4.49L-49.98-2.01C-49.98-8.73-53.90-12.48-59.78-12.48C-65.49-12.48-69.30-8.73-69.30-2.01L-69.30 7.68C-69.30 14.40-65.55 18.15-59.84 18.15C-53.68 18.15-50.04 14.74-49.59 8.58ZM-59.72-9.23C-55.69-9.23-53.28-6.94-53.28-2.01L-53.28 1.41L-65.94 1.41L-65.94-2.01C-65.94-6.94-63.59-9.23-59.72-9.23Z"/>
    <linearGradient id="CUSTOM_SVGID_701" gradientUnits="userSpaceOnUse" gradientTransform="matrix(1 0 0 1 -195.49499185892418 -31.639999999999997)"  x1="0" y1="0" x2="390.98998371784836" y2="63.279999999999994">
      <stop  offset="0" style="stop-color:#834f2a;stop-opacity:undefined"/><stop  offset="0.5" style="stop-color:#dba173;stop-opacity:undefined"/><stop  offset="1" style="stop-color:#834f2a;stop-opacity:undefined"/>
    </linearGradient>
  <path fill="url(#CUSTOM_SVGID_702)" opacity="1" d="M-32.40-12.42C-36.04-12.42-38.56-10.69-40.07-8.06L-40.07-8.11L-40.63-11.81L-43.37-11.81L-43.37 17.59L-40.07 17.59L-40.07-0.22C-40.07-5.82-37.32-9.18-33.12-9.18C-31.67-9.18-30.49-8.95-29.43-8.56L-29.43-12.14C-30.32-12.37-31.28-12.42-32.40-12.42Z"/>
    <linearGradient id="CUSTOM_SVGID_702" gradientUnits="userSpaceOnUse" gradientTransform="matrix(1 0 0 1 -195.49499185892418 -31.639999999999997)"  x1="0" y1="0" x2="390.98998371784836" y2="63.279999999999994">
      <stop  offset="0" style="stop-color:#834f2a;stop-opacity:undefined"/><stop  offset="0.5" style="stop-color:#dba173;stop-opacity:undefined"/><stop  offset="1" style="stop-color:#834f2a;stop-opacity:undefined"/>
    </linearGradient>
  <path fill="url(#CUSTOM_SVGID_703)" opacity="1" d="M-16.66-12.48C-22.09-12.48-25.73-9.18-25.96-4.14L-22.65-4.14C-22.43-7.38-20.13-9.29-16.77-9.29C-12.96-9.29-10.95-6.99-10.95-2.68L-10.95 0.46L-16.77 0.46C-23.21 0.46-26.85 3.59-26.85 9.25C-26.85 14.96-22.93 18.26-17.56 18.26C-14.36 18.26-12.12 16.81-10.78 14.85L-10.50 17.59L-7.64 17.59L-7.64-2.74C-7.64-8.73-11.06-12.48-16.66-12.48ZM-17.05 15.02C-20.86 15.02-23.49 13.17-23.49 9.30C-23.49 5.55-21.20 3.54-16.88 3.54L-10.95 3.54L-10.95 9.30C-10.95 12.66-13.30 15.02-17.05 15.02Z"/>
    <linearGradient id="CUSTOM_SVGID_703" gradientUnits="userSpaceOnUse" gradientTransform="matrix(1 0 0 1 -195.49499185892418 -31.639999999999997)"  x1="0" y1="0" x2="390.98998371784836" y2="63.279999999999994">
      <stop  offset="0" style="stop-color:#834f2a;stop-opacity:undefined"/><stop  offset="0.5" style="stop-color:#dba173;stop-opacity:undefined"/><stop  offset="1" style="stop-color:#834f2a;stop-opacity:undefined"/>
    </linearGradient>
  <path fill="url(#CUSTOM_SVGID_704)" opacity="1" d="M25.56-12.48C21.36-12.48 18.73-10.18 17.39-6.82C16.16-10.69 13.64-12.48 10.33-12.48C6.80-12.48 4.40-10.69 3.00-8.00L2.49-11.81L-0.25-11.81L-0.25 17.59L3.05 17.59L3.05-0.22C3.05-5.93 5.68-9.34 9.60-9.34C12.85-9.34 14.81-6.99 14.81-0.83L14.81 17.59L18.12 17.59L18.12-0.22C18.12-5.93 20.86-9.34 24.84-9.34C28.03-9.34 29.88-6.99 29.88-0.83L29.88 17.59L33.18 17.59L33.18-1.11C33.18-8.90 30.10-12.48 25.56-12.48Z"/>
    <linearGradient id="CUSTOM_SVGID_704" gradientUnits="userSpaceOnUse" gradientTransform="matrix(1 0 0 1 -195.49499185892418 -31.639999999999997)"  x1="0" y1="0" x2="390.98998371784836" y2="63.279999999999994">
      <stop  offset="0" style="stop-color:#834f2a;stop-opacity:undefined"/><stop  offset="0.5" style="stop-color:#dba173;stop-opacity:undefined"/><stop  offset="1" style="stop-color:#834f2a;stop-opacity:undefined"/>
    </linearGradient>
  <path fill="url(#CUSTOM_SVGID_705)" opacity="1" d="M41.86-17.24C43.48-17.24 44.55-18.30 44.55-19.93C44.55-21.55 43.48-22.62 41.86-22.62C40.24-22.62 39.17-21.55 39.17-19.93C39.17-18.30 40.24-17.24 41.86-17.24ZM40.24 17.59L43.54 17.59L43.54-11.81L40.24-11.81Z"/>
    <linearGradient id="CUSTOM_SVGID_705" gradientUnits="userSpaceOnUse" gradientTransform="matrix(1 0 0 1 -195.49499185892418 -31.639999999999997)"  x1="0" y1="0" x2="390.98998371784836" y2="63.279999999999994">
      <stop  offset="0" style="stop-color:#834f2a;stop-opacity:undefined"/><stop  offset="0.5" style="stop-color:#dba173;stop-opacity:undefined"/><stop  offset="1" style="stop-color:#834f2a;stop-opacity:undefined"/>
    </linearGradient>
  <path fill="url(#CUSTOM_SVGID_706)" opacity="1" d="M69.97 17.59L74.12 17.59L60.06-4.53L72.55-21.61L68.24-21.61L58.21-7.50L55.02-2.90L55.02-21.61L51.55-21.61L51.55 17.59L55.02 17.59L55.02 2.30L57.82-1.50Z"/>
    <linearGradient id="CUSTOM_SVGID_706" gradientUnits="userSpaceOnUse" gradientTransform="matrix(1 0 0 1 -195.49499185892418 -31.639999999999997)"  x1="0" y1="0" x2="390.98998371784836" y2="63.279999999999994">
      <stop  offset="0" style="stop-color:#834f2a;stop-opacity:undefined"/><stop  offset="0.5" style="stop-color:#dba173;stop-opacity:undefined"/><stop  offset="1" style="stop-color:#834f2a;stop-opacity:undefined"/>
    </linearGradient>
  <path fill="url(#CUSTOM_SVGID_707)" opacity="1" d="M86.44-12.48C81.00-12.48 77.36-9.18 77.14-4.14L80.44-4.14C80.67-7.38 82.96-9.29 86.32-9.29C90.13-9.29 92.15-6.99 92.15-2.68L92.15 0.46L86.32 0.46C79.88 0.46 76.24 3.59 76.24 9.25C76.24 14.96 80.16 18.26 85.54 18.26C88.73 18.26 90.97 16.81 92.32 14.85L92.60 17.59L95.45 17.59L95.45-2.74C95.45-8.73 92.04-12.48 86.44-12.48ZM86.04 15.02C82.24 15.02 79.60 13.17 79.60 9.30C79.60 5.55 81.90 3.54 86.21 3.54L92.15 3.54L92.15 9.30C92.15 12.66 89.80 15.02 86.04 15.02Z"/>
    <linearGradient id="CUSTOM_SVGID_707" gradientUnits="userSpaceOnUse" gradientTransform="matrix(1 0 0 1 -195.49499185892418 -31.639999999999997)"  x1="0" y1="0" x2="390.98998371784836" y2="63.279999999999994">
      <stop  offset="0" style="stop-color:#834f2a;stop-opacity:undefined"/><stop  offset="0.5" style="stop-color:#dba173;stop-opacity:undefined"/><stop  offset="1" style="stop-color:#834f2a;stop-opacity:undefined"/>
    </linearGradient>
  </g><g transform="matrix(0.2421455961630781 0 0 0.24214559616307801 255.6235180378131 239.02207812526495)"  >
<g style=""   >
		<g transform="matrix(1 0 0 1 -0.11877301301859688 -0.13348272818302576)"  >
<linearGradient id="SVGID_76475_76477" gradientUnits="userSpaceOnUse" gradientTransform="matrix(1 0 0 1 80 241.4843930375585)"  x1="0" y1="0" x2="1000" y2="1000">
<stop offset="0%" style="stop-color:#834f2a;"/>
<stop offset="50%" style="stop-color:#dba173;"/>
<stop offset="100%" style="stop-color:#834f2a;"/>
</linearGradient>
<path style="stroke: none; stroke-width: 1; stroke-dasharray: none; stroke-linecap: butt; stroke-dashoffset: 0; stroke-linejoin: miter; stroke-miterlimit: 4; fill: url(#SVGID_76475_76477); fill-rule: nonzero; opacity: 1;"  transform=" translate(-499.8812269869814, -499.866517271817)" d="M 515 250 l 0 0 c 107 -12 204 -11 276 1 c 74 12 121 36 125 68 c 2 5 3 10 3 15 c 5 38 -15 68 -48 93 c 0 13 -6 24 -18 35 c 5 5 10 10 13 15 c 3 7 5 14 5 21 c 0 13 -6 25 -19 36 c 5 5 10 11 13 16 c 4 7 6 14 6 21 c 0 12 -5 22 -15 33 c 0 0 0 0 0 0 c -22 81 -125 127 -249 145 c -73 11 -153 12 -228 4 c -75 -7 -144 -24 -195 -48 c -55 -25 -90 -60 -89 -102 c -10 -10 -15 -20 -15 -32 c 0 -7 2 -14 6 -21 c 4 -5 8 -11 14 -16 c -13 -11 -20 -23 -20 -36 c 0 -7 2 -14 6 -21 c 3 -5 7 -10 12 -15 c -12 -11 -18 -23 -18 -35 c 0 -15 9 -29 25 -42 c 16 -12 40 -24 69 -34 c 18 -13 43 -26 72 -38 c 68 -28 163 -51 269 -63 l 0 0 z m 327 366 c -21 15 -51 28 -89 38 c -71 20 -169 33 -277 33 c -109 0 -207 -13 -278 -33 c -40 -11 -72 -25 -93 -41 c 5 33 36 62 83 83 c 50 24 119 40 192 48 c 74 7 153 6 225 -4 c 113 -17 208 -57 237 -124 z m -53 -118 l -1 0 l -2 1 l -1 0 l -1 1 l 0 0 c -10 3 -20 7 -31 10 c -47 13 -107 23 -174 28 l 0 0 l -3 0 l -2 1 l -2 0 l -3 0 l -1 0 l -3 0 l -1 0 l -3 0 l -8 1 l 0 0 l -3 0 l 0 0 l -4 0 l -1 0 l -3 1 l -4 0 l -3 0 l -1 0 l -3 0 l 0 0 l -4 0 l -1 0 l -3 0 l -2 0 l -2 0 l -3 1 l -1 0 l -4 0 l 0 0 l -4 0 l -1 0 l -3 0 l -2 0 l -2 0 l -3 0 l 0 0 l -4 0 l -1 0 l -3 0 l -2 0 l -2 0 l -3 0 l -1 0 l -4 0 l -4 0 l -1 0 l -3 0 l -2 0 l -2 0 l -3 0 l -1 0 l -4 0 l 0 0 l -4 0 l -1 0 l -3 0 l -2 0 l -2 0 l -3 0 l -1 0 l -4 0 l 0 0 l -4 -1 l -1 0 l -2 0 l -3 0 l -1 0 l -4 0 l 0 0 l -4 0 l -1 0 l -3 0 l -4 0 l -3 -1 l 0 0 l -4 0 l -1 0 l -3 0 l 0 0 c -4 0 -7 0 -11 -1 l 0 0 l -4 0 l -1 0 l -3 0 l -1 0 l -2 -1 l -3 0 l -1 0 c -67 -5 -126 -15 -174 -28 c -11 -3 -21 -7 -30 -10 l -1 0 l -1 -1 l -1 0 l -2 -1 l 0 0 c -24 -9 -43 -19 -57 -29 c -5 4 -9 9 -12 13 c -3 5 -4 10 -4 16 c 0 11 7 22 19 32 c 1 0 1 0 1 1 c 27 21 77 39 142 52 c 38 8 82 13 129 17 l 2 0 l 2 0 l 3 0 l 0 0 l 4 1 l 1 0 l 3 0 l 3 0 l 0 0 l 3 0 l 1 0 l 4 0 l 0 0 l 4 1 l 1 0 l 2 0 l 2 0 l 2 0 l 3 0 l 1 0 l 4 0 l 0 0 l 3 0 l 2 0 l 2 0 l 3 1 l 1 0 l 4 0 l 0 0 l 4 0 l 1 0 l 3 0 l 2 0 l 1 0 l 4 0 l 0 0 l 4 0 l 1 0 l 3 0 l 4 0 l 3 0 l 1 0 l 4 0 l 4 0 l 1 0 l 3 0 l 3 0 l 4 0 l 0 0 l 4 0 l 1 0 l 3 0 l 2 0 l 2 0 l 3 0 l 1 0 l 4 0 l 0 0 l 3 0 l 2 0 l 2 -1 l 2 0 l 2 0 l 3 0 l 1 0 l 4 0 l 0 0 l 3 0 l 2 0 l 2 0 l 3 0 l 1 0 l 4 -1 l 0 0 l 3 0 l 1 0 l 3 0 l 0 0 l 4 0 l 3 0 l 0 0 l 4 -1 l 1 0 l 3 0 l 1 0 l 2 0 c 48 -4 91 -9 130 -17 c 65 -13 115 -31 141 -52 c 0 -1 1 -1 1 -1 c 13 -10 20 -21 20 -32 c 0 -6 -2 -11 -5 -16 c -3 -4 -6 -9 -11 -13 c -14 10 -34 20 -57 29 z m -301 34 l 3 0 l 1 0 l 3 0 l 1 0 l 3 0 l 2 0 l 2 0 l 3 0 l 1 0 l 4 0 l 0 0 l 4 0 l 1 0 l 3 0 l 1 0 l 3 -1 l 2 0 l 1 0 l 4 0 l 0 0 l 4 0 l 1 0 l 3 0 l 2 0 c 4 0 9 -1 13 -1 l 1 0 c 3 0 6 0 10 -1 l 0 0 c 72 -4 136 -15 187 -29 c 10 -3 20 -6 29 -9 l 1 0 l 2 -1 c 26 -9 46 -20 60 -32 c 0 0 1 0 1 0 c 8 -7 14 -15 16 -22 c -36 24 -86 43 -136 57 c -69 19 -140 30 -178 34 c -14 2 -34 4 -58 5 z m -348 -125 l -1 -1 l 0 0 l 0 -1 l 0 -1 l 0 0 c 0 -8 3 -17 8 -25 c 2 -3 4 -6 7 -10 c -18 8 -32 16 -43 24 c -14 11 -21 22 -21 34 c 0 10 6 21 18 31 c 0 0 0 0 1 1 c 14 11 34 22 60 31 l 0 0 l 2 1 l 0 0 c 8 3 17 5 26 8 c -32 -17 -53 -41 -57 -74 c -1 -6 -1 -12 0 -18 z m 770 -61 c -10 17 -31 34 -61 50 l -1 0 c -4 2 -8 4 -13 7 l -1 0 l -1 0 l -1 1 c -7 3 -15 7 -22 10 c -55 22 -127 41 -208 54 l -3 1 l 0 0 l -3 0 c -8 1 -15 2 -23 3 l -3 1 l 0 0 l -3 0 l -1 0 l -2 1 l -2 0 l -1 0 l -2 0 l -3 1 l -3 0 l -2 0 l -1 0 l -3 1 l -1 0 l -2 0 l -3 0 l 0 0 l 0 0 l -5 1 l 0 0 l -5 0 l 0 1 l -5 0 l 0 0 l -5 0 l 0 1 l -5 0 l 0 0 l -5 0 l 0 0 l -5 1 l 0 0 l -5 0 l 0 0 l -5 1 l 0 0 l -4 0 l -1 0 l -4 0 l 0 0 l -5 1 l 0 0 l -5 0 l 0 0 l -5 0 l 0 0 l -4 1 l 0 0 l -5 0 l 0 0 l -5 0 l 0 0 l -5 0 l 0 0 l -4 1 l 0 0 l -5 0 l 0 0 l -5 0 l 0 0 l -4 0 l -5 0 l 0 0 l -4 0 l 0 0 l -5 1 l 0 0 l -4 0 l -1 0 l -4 0 l 0 0 l -4 0 l -1 0 l -4 0 l 0 0 l -4 0 l 0 0 l -5 0 l 0 0 l -4 0 l 0 0 l -5 0 l 0 0 l -4 0 l 0 0 l -4 0 l 0 0 l -4 0 l -1 0 l -4 -1 l 0 0 l -4 0 l 0 0 l -8 0 l 0 0 l -5 0 l 0 0 c -8 -1 -16 -1 -24 -2 l 0 0 c -4 0 -8 0 -12 -1 l 0 0 c -18 -1 -35 -3 -50 -6 c -17 -2 -32 -6 -45 -9 l -2 -1 c -31 -9 -55 -21 -67 -35 c 6 30 29 51 61 66 c 36 15 82 24 130 27 c 81 6 164 -1 203 -6 c 38 -4 108 -14 177 -34 c 50 -14 100 -33 135 -57 c 32 -22 52 -49 53 -80 z m -644 120 c 5 0 9 1 14 2 l 0 0 l 3 0 l 0 0 c 5 1 10 1 15 2 l 0 0 l 3 0 l 0 0 c 4 1 8 1 12 1 l 0 0 l 3 1 l 0 0 l 4 0 l 0 0 l 4 0 l 0 0 l 4 1 l 0 0 l 4 0 l 0 0 l 4 0 l 0 0 l 4 0 l 0 0 l 4 1 l 0 0 l 4 0 l 4 0 l 0 0 l 4 0 l 4 0 l 5 0 l 0 0 l 4 1 l 0 0 l 4 0 l 0 0 c 3 0 6 0 8 0 l 0 0 l 5 0 l 0 0 c 3 0 6 0 8 0 l 0 0 l 5 0 l 4 0 l 0 0 l 5 0 l 0 0 l 4 0 l 0 0 l 5 0 l 0 0 l 4 0 l 0 0 l 5 0 l 0 0 l 4 -1 l 0 0 l 5 0 l 0 0 l 4 0 l 0 0 l 5 0 l 0 0 l 4 0 l 0 0 l 5 0 l 0 0 l 5 -1 l 0 0 l 9 0 l 0 0 l 5 0 l 0 0 l 5 -1 l 0 0 c 9 0 19 -1 28 -2 l 0 0 c 12 -1 23 -2 35 -3 l 0 0 l 3 -1 l 3 0 l 3 0 l 3 -1 l 2 0 l 0 0 l 3 -1 l 2 0 l 1 0 l 3 0 l 1 0 l 2 -1 l 3 0 l 2 0 l 1 0 l 3 -1 l 2 0 l 2 0 l 1 -1 l 3 0 l 0 0 l 3 0 l 2 -1 l 1 0 l 3 0 l 1 0 l 1 -1 l 3 0 l 1 0 l 2 -1 l 2 0 l 1 0 l 3 0 l 1 -1 l 1 0 l 3 0 l 1 0 l 2 -1 l 2 0 l 1 0 l 2 -1 l 2 0 l 1 0 l 3 -1 l 1 0 l 4 -1 l 0 0 l 3 0 l 2 -1 l 1 0 l 2 0 l 1 0 l 5 -1 l 0 0 l 2 -1 l 2 0 l 1 0 l 3 -1 l 1 0 l 1 0 l 3 -1 l 0 0 l 2 0 l 3 -1 l 0 0 l 3 -1 l 1 0 l 1 0 l 3 -1 l 0 0 l 2 0 l 3 -1 l 0 0 l 2 0 l 2 -1 l 3 -1 l 1 0 l 2 0 l 2 -1 l 1 0 l 2 0 l 2 -1 l 0 0 l 3 0 l 1 -1 l 1 0 l 3 -1 l 0 0 l 2 0 l 2 -1 l 1 0 l 2 -1 l 1 0 l 2 0 l 2 -1 l 0 0 l 2 0 l 2 -1 l 1 0 l 2 -1 l 1 0 l 2 0 l 2 -1 l 0 0 l 3 -1 l 1 0 l 1 0 l 3 -1 l 0 0 l 2 -1 l 2 0 l 0 0 l 3 -1 l 1 0 l 1 -1 l 2 -1 l 1 0 l 2 0 l 1 -1 l 1 0 l 2 -1 l 1 0 l 2 0 l 2 -1 l 0 0 l 2 -1 l 1 0 l 1 0 l 3 -1 l 0 0 l 2 -1 l 2 -1 l 0 0 l 2 0 l 1 -1 l 1 0 l 3 -1 l 0 0 l 0 0 l 3 -1 l 0 0 l 1 0 l 2 -1 l 1 0 l 1 -1 l 2 -1 l 0 0 l 2 0 l 2 -1 l 0 0 l 2 -1 l 1 0 l 1 -1 l 2 0 l 0 0 l 2 -1 l 1 -1 l 1 0 l 1 0 c 3 -1 6 -3 9 -4 l 2 -1 c 13 -5 24 -10 35 -16 c 0 0 0 0 1 0 c 41 -22 64 -45 62 -67 c -3 -27 -48 -48 -117 -59 c -71 -12 -168 -13 -273 -1 l -1 0 l 0 0 c -105 12 -199 34 -266 62 c -29 12 -53 24 -70 37 c 0 0 -1 1 -2 1 c -10 8 -18 16 -23 24 c -4 6 -6 13 -6 19 l 0 0 l 0 0 l 0 1 l 0 0 l 0 0 l 0 1 l 0 0 c 0 0 0 0 0 1 l 0 0 l 0 0 l 0 0 c 0 0 0 1 1 1 l 0 0 l 0 1 l 0 0 l 0 2 l 0 0 l 0 1 l 0 0 l 1 1 l 0 0 l 0 1 l 0 0 l 1 2 l 0 1 l 0 0 l 1 1 l 0 0 c 0 0 1 1 1 1 l 0 0 l 1 1 l 0 0 l 0 2 c 1 0 1 0 1 1 l 0 0 l 1 1 l 0 0 l 1 1 l 0 0 c 2 2 4 4 6 6 l 0 0 c 4 3 9 7 15 10 l 0 0 l 2 1 l 0 0 c 2 1 4 2 6 3 l 0 0 c 1 0 3 1 4 1 l 0 0 l 2 1 l 0 0 c 4 2 7 3 11 5 l 0 0 c 16 5 40 12 62 15 z" stroke-linecap="round" />
</g>
		<g transform="matrix(1 0 0 1 -278 -44)"  >
<line style="stroke: none; stroke-width: 1; stroke-dasharray: none; stroke-linecap: butt; stroke-dashoffset: 0; stroke-linejoin: miter; stroke-miterlimit: 4; fill: none; fill-rule: nonzero; opacity: 1;"  x1="0" y1="0" x2="0" y2="0" />
</g>
		<g transform="matrix(1 0 0 1 -311 -55.5)"  >
<path style="stroke: none; stroke-width: 1; stroke-dasharray: none; stroke-linecap: butt; stroke-dashoffset: 0; stroke-linejoin: miter; stroke-miterlimit: 4; fill: none; fill-rule: nonzero; opacity: 1;"  transform=" translate(-189, -444.5)" d="M 187 444 c 1 0 3 1 4 1" stroke-linecap="round" />
</g>
		<g transform="matrix(1 0 0 1 54.5 110.5)"  >
<path style="stroke: none; stroke-width: 1; stroke-dasharray: none; stroke-linecap: butt; stroke-dashoffset: 0; stroke-linejoin: miter; stroke-miterlimit: 4; fill: none; fill-rule: nonzero; opacity: 1;"  transform=" translate(-554.5, -610.5)" d="M 559 610 c -3 1 -6 1 -9 1" stroke-linecap="round" />
</g>
</g>
</g>
</svg>